<svg xmlns="http://www.w3.org/2000/svg" width="240" height="240" viewBox="0 0 240 240">
  <g fill="none" stroke="currentColor" stroke-width="0.8" stroke-linecap="round" stroke-linejoin="round" opacity="0.15">
    <path d="M20 20 q5-5 10 0 l2 8 q-5 5-10 0z" transform="rotate(15 25 25)"/> <circle cx="50" cy="15" r="1.5" fill="currentColor"/> <path d="M70 30 l8-4-4 8z"/> <path d="M140 20 h12 v10 q0 6-6 6 t-6-6z"/> <path d="M180 15 l10 10 m-10 0 l10-10"/> <circle cx="210" cy="35" r="8"/> <line x1="216" y1="41" x2="222" y2="47"/>

    <path d="M30 80 c0-10 15-10 15 0 s-15 10-15 0"/> <path d="M70 70 l12 12 m0-12 l-12 12"/> <rect x="15" y="110" width="18" height="12" rx="2" transform="rotate(-10 24 116)"/> <circle cx="24" cy="116" r="3" transform="rotate(-10 24 116)"/>
    <path d="M90 100 q10 0 10 10 t-10 10 t-10-10 t10-10"/> <path d="M150 90 l15 5-5 15-15-5z"/> <path d="M190 110 h15 m-7.5-7.5 v15"/> <path d="M220 85 q-5 10 5 20" /> <circle cx="120" cy="130" r="1.5" fill="currentColor"/>

    <path d="M40 170 v15 h15" /> <circle cx="80" cy="160" r="10" /> <path d="M70 160 h20" />
    <path d="M25 210 l15-15" /> <path d="M30 200 l5 5"/>

    <path d="M140 180 q10-10 20 0 l-10 20z" transform="rotate(-20 150 190)"/> <rect x="180" y="170" width="15" height="15" rx="3"/> <path d="M184 177 h7"/>
    <circle cx="220" cy="210" r="12" stroke-dasharray="2 2"/> <circle cx="110" cy="50" r="1" fill="currentColor"/>
    <circle cx="10" cy="140" r="0.8" fill="currentColor"/>
    <circle cx="230" cy="140" r="1" fill="currentColor"/>
    <circle cx="130" cy="220" r="0.8" fill="currentColor"/>
    <path d="M100 180 l3 3 m-3 0 l3-3" opacity="0.5"/>
    <path d="M170 60 l2 2 m-2 0 l2-2" opacity="0.5"/>
  </g>
</svg>
